<svg xmlns="http://www.w3.org/2000/svg" width="115" height="105.8" viewBox="0 0 115 105.8"><title>car-sell</title><path d="M15.6,73.6a6.2,6.2,0,1,0,6.2,6.2A6.2,6.2,0,0,0,15.6,73.6Zm0,9.2a3,3,0,1,1,3-3A3,3,0,0,1,15.6,82.8Z" fill="#ed1c35"/><path d="M68.7,73.6a6.2,6.2,0,1,0,6.2,6.2A6.2,6.2,0,0,0,68.7,73.6Zm0,9.2a3,3,0,1,1,3-3A3,3,0,0,1,68.7,82.8Z" fill="#ed1c35"/><path d="M56,75.9H28.3a1.6,1.6,0,1,0,0,3.2H56a1.6,1.6,0,1,0,0-3.2Z" fill="#ed1c35"/><path d="M56,84H28.3a1.6,1.6,0,1,0,0,3.2H56A1.6,1.6,0,1,0,56,84Z" fill="#ed1c35"/><path d="M114,18.6,103,2.5A5.8,5.8,0,0,0,94.9,1L74.2,15.1l-.5.3c-1.1.7-1.8,1.2-2.1,2.5L69.5,29c-5.8,2.7-9.5,7.4-11.1,14.4a152.7,152.7,0,0,0-16.8-1.1A157.6,157.6,0,0,0,17,44.6a1.8,1.8,0,0,0-1.3,1L9.8,58.9H9.6L5.4,58H5a5,5,0,0,0-5,5v1.1A5.1,5.1,0,0,0,3.9,69h.3L1.9,74.5a1.8,1.8,0,0,0-.1.7v15a1.7,1.7,0,0,0,.2.7h0a5.1,5.1,0,0,0-.2,1.4v8.1a5.2,5.2,0,0,0,5.2,5.2H15a5.2,5.2,0,0,0,5.2-5.2V95.7h.3a137.1,137.1,0,0,0,22.2,2,129.3,129.3,0,0,0,21-1.9H64v4.8a5.2,5.2,0,0,0,5.2,5.2h8.1a5.2,5.2,0,0,0,5.2-5.2V92.5a5.1,5.1,0,0,0-.2-1.4h0a1.7,1.7,0,0,0,.2-.7v-15a1.7,1.7,0,0,0-.1-.7l-2.3-5.4h.3a5.1,5.1,0,0,0,3.9-4.9V63a5,5,0,0,0-5-5h-.4l-4.2.8h-.2L68.5,45.7a1.7,1.7,0,0,0-1.3-1l-5.8-.8c1.2-5,3.6-8.6,7.4-10.9l-.5,2.7a2.8,2.8,0,0,0,2.3,3.3l17.7,3.4h.7a3.4,3.4,0,0,0,2.2-1l.7-.5,20.7-14.1a5.8,5.8,0,0,0,1.5-8.1Zm-43.4,41a180,180,0,0,1-28.4,2.7,180,180,0,0,1-28.4-2.7h-.3l5.2-11.6h.1a155.7,155.7,0,0,1,22.9-2.1,180,180,0,0,1,24,2.1h.1l5.2,11.6Zm-3,35.6h.2c4.8-.9,8.6-1.9,11-2.5H79v8.1a1.7,1.7,0,0,1-1.7,1.7H69.3a1.7,1.7,0,0,1-1.7-1.7Zm9.7-29.1A1.8,1.8,0,0,0,76,68.5l3,7.3V88.9h-.2c-4.4,1.2-20,5.3-36.1,5.3S10.1,90.2,5.4,88.9H5.2V75.4l3-7a1.8,1.8,0,0,0-1.2-2.4l-1.6-.4H5a1.5,1.5,0,0,1-1.5-1.5V63a1.5,1.5,0,0,1,1.3-1.5h.1c2.1.4,20.6,4.3,37.2,4.3S77.3,62,79.4,61.5h.1A1.5,1.5,0,0,1,80.8,63v1.1a1.5,1.5,0,0,1-1.5,1.5h-.4ZM15,102.3H6.9a1.7,1.7,0,0,1-1.7-1.7V92.5h.3c2.4.6,6.2,1.5,11,2.5h.2v5.5A1.7,1.7,0,0,1,15,102.3Zm96-78.6-.4.3L89.9,38.1a4.3,4.3,0,0,1-2.4.9L72.3,36.1a1,1,0,0,1-.8-1.2l.7-3.7a26.5,26.5,0,0,1,5.3-1.3A5.8,5.8,0,0,0,83,33.7h0a5.8,5.8,0,0,0,2.5-.6l.8-.4a5.8,5.8,0,0,0,1.5-8.1l-.4-.5a5.8,5.8,0,0,0-7.7-1.1,5.8,5.8,0,0,0-2.4,3.7h0a32.2,32.2,0,0,0-4.4.9l1.5-8v-.4a4.9,4.9,0,0,1,1.5-1.6L96.8,3.7a2.6,2.6,0,0,1,3.5.7l11,16.1a2.5,2.5,0,0,1,.4,1.4,2.5,2.5,0,0,1,0,.5,2.5,2.5,0,0,1-.6,1.2ZM85.1,26.5a2.5,2.5,0,0,1,.4,1.9v.5a2.5,2.5,0,0,1-.9,1.1h0a2.5,2.5,0,0,1-3.4-.5h3v-3H80.9l.7-.7a2.5,2.5,0,0,1,3.5.7Z" fill="#ed1c35"/></svg>