<svg xmlns="http://www.w3.org/2000/svg" width="111.8" height="82.8" viewBox="0 0 111.8 82.8"><title>car-search</title><path d="M107.8,68.1,86.7,55.9a8,8,0,0,0-8.5.4l-1.3.9-10-5.8.9-2A35.3,35.3,0,1,0,44.5,69.5,34.9,34.9,0,0,0,63.6,56.5L65,54.6,75,60.4l-.2,1.6a7.6,7.6,0,0,0,3.9,7.5L100,81.8a7.9,7.9,0,0,0,3.9,1l2.1-.3a7.9,7.9,0,0,0,1.9-14.4ZM104.8,79a4,4,0,0,1-3.1-.6l-21-12.1a4.3,4.3,0,0,1-2.1-2.8,4,4,0,0,1,.6-3.1,4.6,4.6,0,0,1,2.5-1.9h1.1a4.4,4.4,0,0,1,2.2.6l21,12.3a4.3,4.3,0,0,1,2.1,2.8,4,4,0,0,1-.6,3.1h0A4.2,4.2,0,0,1,105,79ZM62.6,51.2A31.4,31.4,0,0,1,43.3,65.9h-.5a30.7,30.7,0,0,1-23.4-3.3A31.6,31.6,0,0,1,27,4.9a31.9,31.9,0,0,1,8.3-1.1A31.5,31.5,0,0,1,65.7,27.2,31.4,31.4,0,0,1,62.6,51.2Z" fill="#ed1c35"/><path d="M51.9,27.7h-.3l-1.5.3-2.4-5.5a1.4,1.4,0,0,0-1-.8A83.3,83.3,0,0,0,35,20.6a71.4,71.4,0,0,0-11.1,1.1,1.4,1.4,0,0,0-1,.8L20.4,28l-1.5-.3h-.3a2.9,2.9,0,0,0-2.9,2.9V31a2.9,2.9,0,0,0,1.7,2.6l-.8,1.8a1.4,1.4,0,0,0-.1.5v6.7a1.3,1.3,0,0,0,.1.4,2.8,2.8,0,0,0-.1.6v3.6a3,3,0,0,0,2.9,2.9h3.6A3,3,0,0,0,26,47.4V45.9a61.2,61.2,0,0,0,9.5.8,57.9,57.9,0,0,0,8.9-.7v1.4a3,3,0,0,0,2.9,2.9H51a3,3,0,0,0,2.9-2.9V43.8a2.8,2.8,0,0,0-.1-.6,1.3,1.3,0,0,0,.1-.4V36a1.4,1.4,0,0,0-.1-.5l-.8-1.8A2.9,2.9,0,0,0,54.7,31v-.5A2.9,2.9,0,0,0,51.9,27.7ZM19.3,36.3l1.3-3.1a1.4,1.4,0,0,0-1-1.9l-.7-.2h-.4v-.5a90.3,90.3,0,0,0,16.6,1.9,89.1,89.1,0,0,0,16.7-1.9h0V31h-.4l-.7.2a1.4,1.4,0,0,0-1,1.9l1.3,3.1v5.4a64,64,0,0,1-15.7,2.2,69.9,69.9,0,0,1-16.2-2.3Zm15.9-6.7a78.3,78.3,0,0,1-12-1.1l1.9-4.2a68.3,68.3,0,0,1,9.9-.9,79.1,79.1,0,0,1,10.4.9l1.9,4.2A78.3,78.3,0,0,1,35.2,29.6Zm-12,15.8v2l-.2.2H19.4l-.2-.2V44.6Zm27.9-.8v2.8H47.4l-.2-.2V45.5Z" fill="#ed1c35"/><path d="M42.8,37a1.4,1.4,0,0,0-1.4-1.4H29a1.4,1.4,0,1,0,0,2.8H41.4A1.4,1.4,0,0,0,42.8,37Z" fill="#ed1c35"/></svg>