<svg xmlns="http://www.w3.org/2000/svg" width="16.5" height="15.7" viewBox="0 0 16.5 15.7"><title>user</title><path d="M12.3,7.5h-.1a4.2,4.2,0,0,0,.3-1.4V3.7A3.7,3.7,0,0,0,8.8,0H7.7A3.7,3.7,0,0,0,4.1,3.7V5.9a4.2,4.2,0,0,0,.3,1.4H4.2A5.6,5.6,0,0,0,0,12.9v1.8a.9.9,0,0,0,.9.9H15.6a.9.9,0,0,0,.9-.9V12.9A5.6,5.6,0,0,0,12.3,7.5ZM7.7,1.9H8.8a1.8,1.8,0,0,1,1.8,1.8V5.9A2.2,2.2,0,0,1,8.3,8.1H8.2A2.2,2.2,0,0,1,6,5.9V3.7A1.8,1.8,0,0,1,7.7,1.9ZM8.3,10a4,4,0,0,0,2.4-.8H11a3.7,3.7,0,0,1,3.6,3.7v.9H1.9v-.9a3.6,3.6,0,0,1,1.2-2.6,3.8,3.8,0,0,1,2.7-1,4.1,4.1,0,0,0,2.4.8Z" fill="#ed1c35"/></svg>