<svg xmlns="http://www.w3.org/2000/svg" width="958.5" height="114.8" viewBox="0 0 958.5 114.8"><title>logotype</title><path d="M300.9 83.5c0-1.7-.4-2.6-.4-3.9a32.6 32.6 0 0 0-1.7-7 52.8 52.8 0 0 0-7.9-16.6A39.1 39.1 0 0 0 277 44.7c-3-1.7-8.7-3.5-12.2-4.4-10-1.7-20.5-2.2-30-3.9-4.4-.9-9.1-1.7-13.1-3.5-10.5-3.5-7.4-2.6-15.7-9.1l-4.8-3.5c-10.5-7.4-20.9-13.5-33.5-16.5-23.1-5.7-63.2-4.8-85.8 1.3-20 5.2-52.7 23.5-62.3 26.1-7.8 1.8-13.9 0-16.6 5.7-1.7 3-3 13.9-3 19.1v.4c0 9.1.4 33.1 6.5 37.4a18 18 0 0 0 10 2.6c4.8 0-1.7-11.3 9.1-26.1 9.6-12.6 29.2-15.2 42.2-6.5a38.1 38.1 0 0 1 4.4 3.5c4.8 3.9 9.6 13.5 9.6 20.5 0 2.2-.4 7.4 0 8.7 18.3 0 35.3.4 53.1.4 24.8 0 54.9.9 78.8-.4 3.5 0 1.7-.9 1.7-6.5 0-29.2 37-41.4 55.3-20.5a19.3 19.3 0 0 1 3.5 4.8c2.6 4.4 3.5 7.8 4.4 13.1.9 7-2.2 9.1 1.7 9.1h13.9c8.4 0 6.7-10.4 6.7-13zM123.2 48.2H65.3c-1.3 0-2.6 0-2.6-1.3 0-6.1 10.9-20.5 16.5-24 9.1-6.1 27-5.7 40.5-5.7a3.3 3.3 0 0 1 2.2.4l4.8 29.2c0 1.4-1.7 1.4-3.5 1.4zm77.5 0c-8.7 0-57 .9-61.4 0l-5.2-30.9c3.5-.9 18.3.4 22.6.9 9.1 1.3 46.2 17.9 46.2 28.7 0 1.3-1.3 1.3-2.2 1.3z" fill="#113f5c"/><path d="M247.3 67.8c-13.1 0-24 10.5-24 23.5s10.9 23.5 24 23.5a23.5 23.5 0 0 0 0-47zm0 35.3c-6.5 0-12.2-5.2-12.2-11.8s5.7-11.8 12.2-11.8a11.8 11.8 0 0 1 0 23.5zM50.5 67.8A23.5 23.5 0 1 0 74 91.3a23.4 23.4 0 0 0-23.5-23.5zm0 35.3a11.8 11.8 0 1 1 11.8-11.8 11.7 11.7 0 0 1-11.8 11.8z" fill="#113f5c"/><path d="M390.6 4.7H326q-3.2 0-3.2 2.9v14.2q0 3 3.6 3h18.4q2.6 0 2.6 2.7v77.2a7.2 7.2 0 0 0 .9 4q.9 1.3 4.2 1.3h11.4q3.4 0 4.5-1.7a7.5 7.5 0 0 0 .6-3.6V27.5q0-2.7 2.6-2.7h19q3.1 0 3.1-3.2V8.3a4.8 4.8 0 0 0-.7-2.5 2.5 2.5 0 0 0-2.4-1.1zm61.7 59.2q-1.9-2.4.6-3.8a19.8 19.8 0 0 0 9.8-8q11.1-19.4-2.5-37.8-9.2-9.6-27.7-9.6h-27q-3.4 0-4.5 1.7a7.4 7.4 0 0 0-.6 3.6v94.8q0 3.5 1.6 4.7a6.8 6.8 0 0 0 3.5.6h11.4a6.6 6.6 0 0 0 3.9-.9q1.2-.9 1.2-4.4V67.4q0-1.8 1.6-1.8h2.8a3.3 3.3 0 0 1 3.1 2.1l17.4 39.1a6.5 6.5 0 0 0 1 1.8q1.3 1.4 4.5 1.4h15.2q4.8-1.7 3.1-5.4zm-11.7-20q-3.6 3.2-9.8 3.2H424q-2 0-2-2.3V26.5a2.2 2.2 0 0 1 2.5-2.6h6.4q7.1 0 10.7 3.8 5.9 8.3-.9 16.2zm84-35q-.7-2.7-1.8-3.5a5.2 5.2 0 0 0-3-.8h-18.4a5.5 5.5 0 0 0-3.1.8q-1.1.8-1.7 3.5l-22.5 96.6a2.7 2.7 0 0 1-.3.8q-.3 2.6 2.8 3.8h14.2a3.7 3.7 0 0 0 3-1.1 5.7 5.7 0 0 0 1.2-2.6l2.8-11.9a2.6 2.6 0 0 1 2.9-2.3h20a2.7 2.7 0 0 1 2.9 2.3l2.9 11.4a7.7 7.7 0 0 0 1.4 3 3.8 3.8 0 0 0 3.1 1.1h14.3q4.3-1.1 2.9-4.5zm-7.9 63h-12.1q-1.6 0-1-2.3l5.6-26.6a3.7 3.7 0 0 1 1-1.5l.5.5a2.1 2.1 0 0 1 .5 1l6.4 26.6q.7 2.3-.9 2.3zm69.1-67.2h-25.2q-3.4 0-4.5 1.7a7.4 7.4 0 0 0-.6 3.6v94.8q0 3.5 1.6 4.7a6.8 6.8 0 0 0 3.5.6h25.1q20.6 0 28.6-14.9 5.1-9.5 5.1-26.5V42.9q0-18.5-8.5-28.4t-25.1-9.8zm12 63.8q0 12.6-3.2 17.5t-9.9 4.9h-5q-3.1.1-2.6-3V27.5a6.7 6.7 0 0 1 .4-2.6q.4-1.1 2.2-1.1h5.3q8.2 0 11.1 8.3 1.8 4.8 1.8 14.3zm88.6 21.9h-32.9q-1.6 0-1.6-1.8V67.3q0-2.6 1.9-2.6H677q2.9 0 2.9-3V48a2.5 2.5 0 0 0-.9-2.1 3.8 3.8 0 0 0-2.4-.8h-23.1q-1.6 0-1.6-2.7V26.6q0-2.4 2.6-2.4h29.3a5 5 0 0 0 3.4-1 3.4 3.4 0 0 0 1.1-2.6V9.9a7.2 7.2 0 0 0-.9-4q-.9-1.3-4.2-1.3h-47.7q-3.4 0-4.5 1.7a7.4 7.4 0 0 0-.6 3.6v94.8q0 3.5 1.6 4.7a6.8 6.8 0 0 0 3.5.6h49.8q3.4 0 4.5-1.7a7.5 7.5 0 0 0 .6-3.6V94.2a4.6 4.6 0 0 0-.7-2.8q-.8-1-3.3-1zm105-1q-10.3 3-19.8-3.3-3.3-4.3-3.3-17.2V43.5q0-10.5 1.9-14.6 8.7-8.7 19.5-5.8l6.9 1.4c.8 0 1.3-.2 1.5-.7a4.9 4.9 0 0 0 .3-1.9V8.1a3.2 3.2 0 0 0-2.5-3.1c-11.5-4.4-34.8-1.5-43 8.4q-6.1 7.2-6.1 20.6v42.7q0 15.6 5.3 23.3c7.6 11 32.8 14.6 44.3 9.6q3.6-1.6 3.6-5V91.2q-2.6-5.5-8.6-1.8zm65.5-80.5q-.7-2.7-1.8-3.5a5.2 5.2 0 0 0-3-.8h-18.4a5.5 5.5 0 0 0-3.1.8q-1.1.8-1.7 3.5l-22.5 96.6a2.7 2.7 0 0 1-.3.8q-.3 2.6 2.8 3.8h14.2a3.7 3.7 0 0 0 3-1.1 5.7 5.7 0 0 0 1.2-2.6l2.8-11.9a2.6 2.6 0 0 1 2.9-2.3h20a2.7 2.7 0 0 1 2.9 2.3l2.9 11.4a7.7 7.7 0 0 0 1.4 3 3.8 3.8 0 0 0 3.1 1.2h14.3q4.3-1.1 2.9-4.5zm-7.9 63h-12.1q-1.6 0-1-2.3l5.7-26.6a3.7 3.7 0 0 1 1-1.5l.5.5a2.1 2.1 0 0 1 .5 1l6.4 26.6q.7 2.3-.9 2.3zm109 32.7l-18.2-40.7q-1.9-2.4.6-3.8a19.8 19.8 0 0 0 9.8-8q11.1-19.4-2.5-37.8-9.2-9.6-27.7-9.6h-27q-3.4 0-4.5 1.7a7.4 7.4 0 0 0-.6 3.6v94.8q0 3.5 1.6 4.7a6.8 6.8 0 0 0 3.5.6h11.4a6.6 6.6 0 0 0 3.9-.9q1.2-.9 1.2-4.4V67.4q0-1.8 1.6-1.8h2.8a3.3 3.3 0 0 1 3.1 2.1l17.4 39.1a6.5 6.5 0 0 0 1 1.8q1.3 1.4 4.5 1.4H955q4.8-1.7 3-5.4zm-29.9-60.7q-3.6 3.2-9.8 3.2h-6.9q-2 0-2-2.3V26.5a2.2 2.2 0 0 1 2.5-2.6h6.4q7.1 0 10.7 3.8 6 8.3-.9 16.2z" fill="#fff"/></svg>