<?xml version="1.0" encoding="utf-8"?><svg viewBox="0 0 115 105.8" xmlns="http://www.w3.org/2000/svg" xmlns:xlink="http://www.w3.org/1999/xlink"><style>:root>svg{display:none}:root>svg:target{display:block}</style><svg viewBox="0 0 16.1 29.4" id="arrow-gray-left" xmlns="http://www.w3.org/2000/svg"><path d="M14.7 0l1.4 1.4L2.8 14.7 16.1 28l-1.4 1.4L0 14.7 14.7 0z"/></svg><svg viewBox="0 0 16.1 29.4" id="arrow-gray-right" xmlns="http://www.w3.org/2000/svg"><path d="M1.4 29.4L0 28l13.3-13.3L0 1.4 1.4 0l14.7 14.7L1.4 29.4z"/></svg><svg viewBox="0 0 76.5 100.8" id="car-payments" xmlns="http://www.w3.org/2000/svg"><path d="M75.3 13.4L38.9.1h-1.3L1.2 13.4A1.9 1.9 0 0 0 0 15.2v42.5c0 8.1 4 15.9 12.4 23.8 5.9 5.7 13.2 10.8 20.3 15.7l4.5 3.2a1.9 1.9 0 0 0 1.1.4 1.9 1.9 0 0 0 1.1-.3l4.5-3.2c7.1-4.9 14.4-10.1 20.3-15.7 8.3-8 12.4-15.8 12.4-23.8V15.2a1.9 1.9 0 0 0-1.3-1.8zm-2.5 3.1v41.2c0 7.1-3.6 13.8-11.2 21.1-5.6 5.3-12.8 10.4-19.8 15.3l-3.6 2.5-3.6-2.5c-7-4.9-14.2-10-19.7-15.3-7.6-7.3-11.2-14-11.2-21.1V16.5L38.3 3.8z"/><path d="M26.9 34.2a1.4 1.4 0 0 0-1 .8l-2.4 5.5-1.5-.3h-.3a2.9 2.9 0 0 0-2.9 2.8v.5a2.9 2.9 0 0 0 1.7 2.6l-.8 1.8a1.4 1.4 0 0 0-.1.5v6.7a1.3 1.3 0 0 0 .1.4 2.8 2.8 0 0 0-.1.6v3.6a3 3 0 0 0 2.9 2.9h3.6a3 3 0 0 0 2.9-2.8v-1.4a61.2 61.2 0 0 0 9.5.8 57.9 57.9 0 0 0 8.9-.7v1.4a3 3 0 0 0 2.9 2.9H54a3 3 0 0 0 3-3v-3.6a2.8 2.8 0 0 0-.1-.6 1.3 1.3 0 0 0 .1-.4v-6.7a1.4 1.4 0 0 0-.1-.6l-.8-1.8a2.9 2.9 0 0 0 1.7-2.6V43a2.9 2.9 0 0 0-2.9-2.9h-.3l-1.5.3-2.5-5.4a1.4 1.4 0 0 0-1-.8A83.3 83.3 0 0 0 38 33.1a72 72 0 0 0-11.1 1.1zm11.4 7.9a78.3 78.3 0 0 1-12-1.1l1.9-4.2a68.4 68.4 0 0 1 9.9-.9 79 79 0 0 1 10.4.9l1.8 4.2a78.3 78.3 0 0 1-12 1.1zM54.2 57v2.8h-3.8l-.2-.2v-1.7zm-27.9.8v2l-.2.2h-3.6l-.2-.2V57zM55 43.5h-.4l-.7.2a1.4 1.4 0 0 0-1 1.9l1.3 3.1v5.4a64 64 0 0 1-15.7 2.2A69.9 69.9 0 0 1 22.3 54v-5.3l1.3-3.1a1.4 1.4 0 0 0-1-1.9l-.7-.2h-.4V43a90.3 90.3 0 0 0 16.6 1.9 89 89 0 0 0 16.9-2z"/><path d="M44.5 48.1H32a1.4 1.4 0 0 0 0 2.8h12.5a1.4 1.4 0 0 0 0-2.8z"/></svg><svg viewBox="0 0 111.8 82.8" id="car-search" xmlns="http://www.w3.org/2000/svg"><path d="M107.8 68.1L86.7 55.9a8 8 0 0 0-8.5.4l-1.3.9-10-5.8.9-2a35.3 35.3 0 1 0-23.3 20.1 34.9 34.9 0 0 0 19.1-13l1.4-1.9 10 5.8-.2 1.6a7.6 7.6 0 0 0 3.9 7.5L100 81.8a7.9 7.9 0 0 0 3.9 1l2.1-.3a7.9 7.9 0 0 0 1.9-14.4zm-3 10.9a4 4 0 0 1-3.1-.6l-21-12.1a4.3 4.3 0 0 1-2.1-2.8 4 4 0 0 1 .6-3.1 4.6 4.6 0 0 1 2.5-1.9h1.1a4.4 4.4 0 0 1 2.2.6l21 12.3a4.3 4.3 0 0 1 2.1 2.8 4 4 0 0 1-.6 3.1A4.2 4.2 0 0 1 105 79zM62.6 51.2a31.4 31.4 0 0 1-19.3 14.7h-.5a30.7 30.7 0 0 1-23.4-3.3A31.6 31.6 0 0 1 27 4.9a31.9 31.9 0 0 1 8.3-1.1 31.5 31.5 0 0 1 30.4 23.4 31.4 31.4 0 0 1-3.1 24z"/><path d="M51.9 27.7h-.3l-1.5.3-2.4-5.5a1.4 1.4 0 0 0-1-.8A83.3 83.3 0 0 0 35 20.6a71.4 71.4 0 0 0-11.1 1.1 1.4 1.4 0 0 0-1 .8L20.4 28l-1.5-.3h-.3a2.9 2.9 0 0 0-2.9 2.9v.4a2.9 2.9 0 0 0 1.7 2.6l-.8 1.8a1.4 1.4 0 0 0-.1.5v6.7a1.3 1.3 0 0 0 .1.4 2.8 2.8 0 0 0-.1.6v3.6a3 3 0 0 0 2.9 2.9H23a3 3 0 0 0 3-2.7v-1.5a61.2 61.2 0 0 0 9.5.8 57.9 57.9 0 0 0 8.9-.7v1.4a3 3 0 0 0 2.9 2.9H51a3 3 0 0 0 2.9-2.9v-3.6a2.8 2.8 0 0 0-.1-.6 1.3 1.3 0 0 0 .1-.4V36a1.4 1.4 0 0 0-.1-.5l-.8-1.8a2.9 2.9 0 0 0 1.7-2.7v-.5a2.9 2.9 0 0 0-2.8-2.8zm-32.6 8.6l1.3-3.1a1.4 1.4 0 0 0-1-1.9l-.7-.2h-.4v-.5a90.3 90.3 0 0 0 16.6 1.9 89.1 89.1 0 0 0 16.7-1.9v.4h-.4l-.7.2a1.4 1.4 0 0 0-1 1.9l1.3 3.1v5.4a64 64 0 0 1-15.7 2.2 69.9 69.9 0 0 1-16.2-2.3zm15.9-6.7a78.3 78.3 0 0 1-12-1.1l1.9-4.2a68.3 68.3 0 0 1 9.9-.9 79.1 79.1 0 0 1 10.4.9l1.9 4.2a78.3 78.3 0 0 1-12.1 1.1zm-12 15.8v2l-.2.2h-3.6l-.2-.2v-2.8zm27.9-.8v2.8h-3.7l-.2-.2v-1.7z"/><path d="M42.8 37a1.4 1.4 0 0 0-1.4-1.4H29a1.4 1.4 0 1 0 0 2.8h12.4a1.4 1.4 0 0 0 1.4-1.4z"/></svg><svg viewBox="0 0 115 105.8" id="car-sell" xmlns="http://www.w3.org/2000/svg"><path d="M15.6 73.6a6.2 6.2 0 1 0 6.2 6.2 6.2 6.2 0 0 0-6.2-6.2zm0 9.2a3 3 0 1 1 3-3 3 3 0 0 1-3 3zM68.7 73.6a6.2 6.2 0 1 0 6.2 6.2 6.2 6.2 0 0 0-6.2-6.2zm0 9.2a3 3 0 1 1 3-3 3 3 0 0 1-3 3zM56 75.9H28.3a1.6 1.6 0 1 0 0 3.2H56a1.6 1.6 0 1 0 0-3.2zM56 84H28.3a1.6 1.6 0 1 0 0 3.2H56a1.6 1.6 0 1 0 0-3.2z"/><path d="M114 18.6L103 2.5A5.8 5.8 0 0 0 94.9 1L74.2 15.1l-.5.3c-1.1.7-1.8 1.2-2.1 2.5L69.5 29c-5.8 2.7-9.5 7.4-11.1 14.4a152.7 152.7 0 0 0-16.8-1.1A157.6 157.6 0 0 0 17 44.6a1.8 1.8 0 0 0-1.3 1L9.8 58.9h-.2L5.4 58H5a5 5 0 0 0-5 5v1.1A5.1 5.1 0 0 0 3.9 69h.3l-2.3 5.5a1.8 1.8 0 0 0-.1.7v15a1.7 1.7 0 0 0 .2.7 5.1 5.1 0 0 0-.2 1.4v8.1a5.2 5.2 0 0 0 5.2 5.2h8a5.2 5.2 0 0 0 5.2-5.2v-4.7h.3a137.1 137.1 0 0 0 22.2 2 129.3 129.3 0 0 0 21-1.9h.3v4.8a5.2 5.2 0 0 0 5.2 5.2h8.1a5.2 5.2 0 0 0 5.2-5.2v-8.1a5.1 5.1 0 0 0-.2-1.4 1.7 1.7 0 0 0 .2-.7v-15a1.7 1.7 0 0 0-.1-.7l-2.3-5.4h.3a5.1 5.1 0 0 0 3.9-4.9V63a5 5 0 0 0-5-5h-.4l-4.2.8h-.2l-6-13.1a1.7 1.7 0 0 0-1.3-1l-5.8-.8c1.2-5 3.6-8.6 7.4-10.9l-.5 2.7a2.8 2.8 0 0 0 2.3 3.3l17.7 3.4h.7a3.4 3.4 0 0 0 2.2-1l.7-.5 20.7-14.1a5.8 5.8 0 0 0 1.5-8.1zm-43.4 41a180 180 0 0 1-28.4 2.7 180 180 0 0 1-28.4-2.7h-.3L18.7 48h.1a155.7 155.7 0 0 1 22.9-2.1 180 180 0 0 1 24 2.1h.1L71 59.6zm-3 35.6h.2c4.8-.9 8.6-1.9 11-2.5h.2v8.1a1.7 1.7 0 0 1-1.7 1.7h-8a1.7 1.7 0 0 1-1.7-1.7zm9.7-29.1a1.8 1.8 0 0 0-1.3 2.4l3 7.3v13.1h-.2c-4.4 1.2-20 5.3-36.1 5.3s-32.6-4-37.3-5.3h-.2V75.4l3-7A1.8 1.8 0 0 0 7 66l-1.6-.4H5a1.5 1.5 0 0 1-1.5-1.5V63a1.5 1.5 0 0 1 1.3-1.5h.1c2.1.4 20.6 4.3 37.2 4.3s35.2-3.8 37.3-4.3h.1a1.5 1.5 0 0 1 1.3 1.5v1.1a1.5 1.5 0 0 1-1.5 1.5h-.4zM15 102.3H6.9a1.7 1.7 0 0 1-1.7-1.7v-8.1h.3c2.4.6 6.2 1.5 11 2.5h.2v5.5a1.7 1.7 0 0 1-1.7 1.8zm96-78.6l-.4.3-20.7 14.1a4.3 4.3 0 0 1-2.4.9l-15.2-2.9a1 1 0 0 1-.8-1.2l.7-3.7a26.5 26.5 0 0 1 5.3-1.3 5.8 5.8 0 0 0 5.5 3.8 5.8 5.8 0 0 0 2.5-.6l.8-.4a5.8 5.8 0 0 0 1.5-8.1l-.4-.5a5.8 5.8 0 0 0-7.7-1.1 5.8 5.8 0 0 0-2.4 3.7 32.2 32.2 0 0 0-4.4.9l1.5-8v-.4a4.9 4.9 0 0 1 1.5-1.6L96.8 3.7a2.6 2.6 0 0 1 3.5.7l11 16.1a2.5 2.5 0 0 1 .4 1.4 2.5 2.5 0 0 1 0 .5 2.5 2.5 0 0 1-.6 1.2zm-25.9 2.8a2.5 2.5 0 0 1 .4 1.9v.5a2.5 2.5 0 0 1-.9 1.1 2.5 2.5 0 0 1-3.4-.5h3v-3h-3.3l.7-.7a2.5 2.5 0 0 1 3.5.7z"/></svg><svg viewBox="0 0 42 42" id="mute" xmlns="http://www.w3.org/2000/svg"><path d="M21 42a21 21 0 1 1 21-21 21 21 0 0 1-21 21zm0-40a19 19 0 1 0 19 19A19 19 0 0 0 21 2z"/><path d="M10.9 17v8h6l6 4V13l-6 4zm7.1 1.7l2.9-1.9v8.5l-2.9-2-.5-.3h-4.6v-4h4.6zM31.1 19.2l-1.4-1.4-1.8 1.8-1.8-1.8-1.4 1.4 1.8 1.8-1.8 1.8 1.4 1.4 1.8-1.8 1.8 1.8 1.4-1.4-1.8-1.8 1.8-1.8z"/></svg><svg viewBox="0 0 40 40" id="play" xmlns="http://www.w3.org/2000/svg"><path d="M20 0a20 20 0 1 0 20 20A20 20 0 0 0 20 0zm-5 26V13l13 6.5z"/></svg><svg viewBox="0 0 42 42" id="play-o" xmlns="http://www.w3.org/2000/svg"><path d="M17.5 17.7L24 21l-6.5 3.3v-6.6m-2-3.2v13l13-6.5-13-6.5z"/><path d="M21 42a21 21 0 1 1 21-21 21 21 0 0 1-21 21zm0-40a19 19 0 1 0 19 19A19 19 0 0 0 21 2z"/></svg><svg viewBox="0 0 16.5 15.7" id="user" xmlns="http://www.w3.org/2000/svg"><path d="M12.3 7.5h-.1a4.2 4.2 0 0 0 .3-1.4V3.7A3.7 3.7 0 0 0 8.8 0H7.7a3.7 3.7 0 0 0-3.6 3.7v2.2a4.2 4.2 0 0 0 .3 1.4h-.2A5.6 5.6 0 0 0 0 12.9v1.8a.9.9 0 0 0 .9.9h14.7a.9.9 0 0 0 .9-.9v-1.8a5.6 5.6 0 0 0-4.2-5.4zM7.7 1.9h1.1a1.8 1.8 0 0 1 1.8 1.8v2.2a2.2 2.2 0 0 1-2.3 2.2h-.1A2.2 2.2 0 0 1 6 5.9V3.7a1.8 1.8 0 0 1 1.7-1.8zm.6 8.1a4 4 0 0 0 2.4-.8h.3a3.7 3.7 0 0 1 3.6 3.7v.9H1.9v-.9a3.6 3.6 0 0 1 1.2-2.6 3.8 3.8 0 0 1 2.7-1 4.1 4.1 0 0 0 2.4.8z"/></svg></svg>